
        <svg xmlns="http://www.w3.org/2000/svg" xmlns:xlink="http://www.w3.org/1999/xlink" version="1.1" width="3187.5" 
        height="1050.4786784011953" viewBox="0 0 3187.5 1050.4786784011953">
			
			<g transform="scale(9.375) translate(10, 10)">
				<defs id="SvgjsDefs1266"></defs><g id="SvgjsG1267" featureKey="symbolFeature-0" transform="matrix(1.1107217073440552,0,0,1.1107217073440552,-5.5536083879011064,-9.468901877664692)" fill="#01aac1"><path xmlns="http://www.w3.org/2000/svg" d="M95,61.8c-0.4-4.1-1.7-6.7-4.1-8c1.6-1.7,3.7-5.5,3.2-10.4c-0.4-3.9-1.3-5.9-3.4-7.3c1.8-1.9,3.9-5.7,3.4-10.1  c-0.8-7-4.5-8.7-8.4-9.6L50.1,8.6c-0.7-0.1-1.4-0.1-2,0L8.3,17.8c-0.6,0.1-1.1,0.7-1.1,1.3c0,0.6,0.3,1.2,0.9,1.4l6.6,2.5  c0.5,0.7,2.5,4,0.7,6.1l-8.7,3.9c-0.2,0.1-0.4,0.2-0.5,0.4c-0.4,0.3-0.9,0.9-0.9,1.9c0,1.5,0.9,2.1,1.3,2.2l8.9,4.3  c0.3,0.5,1.7,2.6-0.1,4.7l-8.9,3.2c-0.1,0-0.1,0-0.2,0.1C6,49.9,5,50.5,5,52c0,1.6,1,2.1,1.4,2.2c0,0,0,0,0.1,0l0,0l10,5.1  c0.3,0.8,1.2,3.8-0.2,5.5L6.4,69c-0.5,0.2-0.9,0.7-0.9,1.3c0,0.6,0.3,1.1,0.8,1.3L44.6,91c0.6,0.3,1.2,0.4,1.9,0.4  c0.5,0,1.1-0.1,1.6-0.3l40.6-17.7c0.5-0.2,0.9-0.4,1.3-0.8C91.9,71.2,95.4,67,95,61.8z M8.4,19.2c0-0.1,0-0.2,0.2-0.2l39.8-9.2  c0.5-0.1,1-0.1,1.5,0l35.6,7.7c4,0.9,6.9,2.7,7.5,8.6c0.5,4.5-1.9,8.2-3.6,9.6c0,0-2.3,1.8-5.6,3.2c0,0,0,0,0,0l-9.4,3.9  c-0.1-0.5-0.3-1-0.4-1.5l-0.6,0.2l0.6-0.2c-0.1-0.3-0.2-0.7-0.2-1l0-0.1c-0.1-0.4-0.2-0.8-0.2-1.2c0,0,0-0.1,0-0.1l12.4-5  c0,0,4.7-1.7,4.7-7.5c0-1.9-0.5-3.3-1.6-4.3c-1.6-1.4-3.8-1.2-3.9-1.2c0,0-0.1,0-0.1,0L48.1,32.6c-0.6,0.2-1.2,0.3-1.8,0.3  c-0.1-0.1-0.3-0.1-0.5,0c-1,0-2-0.1-2.9-0.5l-34.4-13C8.4,19.4,8.4,19.3,8.4,19.2z M87.2,40c1.4,0.6,2.1,1.9,2.1,3.9  c0,1.2-0.2,2.3-0.6,3.3c-0.9,2.2-2.7,4-5,4.9l-2.8,1.2c0,0,0,0,0,0c-0.2-0.2-0.4-0.4-0.7-0.6c-1.6-1.5-3.8-4.2-5.5-8.8l9.5-4l0,0  c0,0,0,0,0,0C85.2,39.6,86.3,39.6,87.2,40z M65.1,48c0.6,1.6,1.1,3,1.4,4.3c0,0.1,0.9,3.1,3.3,5.7l-22.3,8.8  c-0.2,0.1-0.3,0.1-0.5,0.1c2.6-6.7,1.3-10.2,0.3-11.6c0.3-0.1,0.6-0.2,0.9-0.3L65.1,48z M71.6,58.3c-0.1-0.1-0.3-0.3-0.5-0.4  c0,0,0,0,0,0c0,0,0,0,0,0c-0.1-0.1-0.2-0.3-0.4-0.4l-0.1-0.1c-2.2-2.5-3.1-5.4-3.1-5.4c-0.4-1.4-0.9-3.1-1.6-5  c-0.5-1.2-1.1-2.6-1.7-4c-0.2-0.4-0.4-0.8-0.6-1.2c-1.2-2.4-2.2-4.4-2.7-5.2l8.9-2.9c0,0.1,0.1,0.1,0.1,0.2c2,2.1,2.1,5.2,2.1,5.3  c0,0,0,0.1,0,0.1c0.1,0.4,0.2,0.8,0.3,1.2l0,0.1c0.1,0.4,0.2,0.7,0.3,1c0,0,0,0.1,0,0.1c0.2,0.7,0.4,1.5,0.6,2.1  c1.7,5.1,4.2,8.2,6,9.8c0.3,0.3,0.6,0.5,0.8,0.7l-5.9-0.8c-0.2,0-0.3,0-0.5,0.1c-0.1,0.1-0.2,0.3-0.2,0.4v5.5  c-0.1-0.1-0.2-0.1-0.3-0.2l-0.1-0.1c-0.2-0.1-0.3-0.2-0.5-0.4c-0.1-0.1-0.3-0.2-0.4-0.3l-0.1-0.1C71.9,58.6,71.8,58.5,71.6,58.3  l-0.3,0.5L71.6,58.3z M71.1,33.3l4.4-1.5c0.3-0.1,0.5-0.4,0.4-0.7c-0.1-0.3-0.4-0.5-0.7-0.4l-18.1,6c-0.3,0.1-0.5,0.4-0.4,0.7  c0.1,0.2,0.3,0.4,0.6,0.4c0.1,0,0.1,0,0.2,0l2.5-0.8c0.3,0.5,1.3,2.4,2.5,4.7l-15.2,5.8c3.3-7.4,1.4-11.8,0.1-13.6  c0.4-0.1,0.8-0.2,1.1-0.3l36.7-11.5c0.3,0,1.8-0.1,3,0.9c0.8,0.7,1.2,1.9,1.2,3.4c0,4.9-3.7,6.3-3.9,6.4l-12.2,4.9  C72.9,36.5,72.4,34.8,71.1,33.3z M16.3,29.9c1.8-2,1-4.6,0.2-6.2l26,9.8c1.1,0.4,2.2,0.6,3.4,0.6c0.9,0.9,3.9,5.2-0.2,13.7  c-0.4,0-0.7-0.1-1.1-0.2L12.7,33.7C13.9,32.6,15.9,30.8,16.3,29.9z M7.1,36.5c-0.4-0.1-0.6-0.5-0.6-1.1c0-0.5,0.1-0.8,0.4-1  c0,0,0.1-0.1,0.1-0.1c0,0,0.1-0.1,0.1-0.1l6.4-2.9c-0.7,0.7-1.6,1.5-2.4,2.2C11.1,33.6,11,33.8,11,34c0,0.2,0.2,0.4,0.3,0.5  l32.7,14.3c1,0.4,2.2,0.5,3.2,0.1l15.5-6c0.1,0.2,0.2,0.5,0.3,0.7c0.5,1.2,1,2.3,1.5,3.4l-17,7.1c-1.4,0.6-3,0.5-4.3-0.1l-27.1-13  c0,0,0,0,0,0l-9-4.3C7.2,36.5,7.1,36.5,7.1,36.5z M16.3,47.3c1.4-1.6,1.4-3.3,1-4.7l25.6,12.3c0.9,0.4,1.8,0.6,2.8,0.6  c0.1,0,0.1,0,0.2,0c0.6,0.5,3,3.5-0.1,11.4c-0.2,0-0.4-0.1-0.5-0.2L12.7,51.1C13.9,50.1,15.9,48.2,16.3,47.3z M7,53.2  C6.9,53.2,6.9,53.2,7,53.2c-0.1-0.1-0.1-0.1-0.2-0.1c-0.2-0.1-0.6-0.3-0.6-1.1c0-0.8,0.4-1,0.6-1.1c0,0,0.1,0,0.1,0c0,0,0,0,0.1,0  l7-2.5c-0.8,0.8-1.8,1.7-2.8,2.5C11.1,51,11,51.2,11,51.4c0,0.2,0.1,0.4,0.3,0.5l33.3,16c1,0.4,2.2,0.5,3.2,0.1l22.7-9  c0.1,0.1,0.1,0.1,0.2,0.2l0.1,0.1c0.1,0.1,0.3,0.2,0.4,0.4l0.1,0.1c0.2,0.1,0.3,0.2,0.5,0.4c0,0,0.1,0,0.1,0  c0.2,0.1,0.4,0.3,0.6,0.4l0.1,0.1c0.1,0.1,0.3,0.2,0.5,0.3l0.1,0.1c0.2,0.1,0.4,0.2,0.6,0.3c0.1,0,0.2,0.1,0.2,0.1  c0.1,0,0.2,0,0.3-0.1c0.2-0.1,0.3-0.3,0.3-0.5v-5.8l7.9,1.1c0.3,0,0.5-0.2,0.6-0.4c0.1-0.3-0.1-0.6-0.4-0.7c-0.1-0.1-0.5-0.2-1-0.6  l2.2-0.9c2.6-1.1,4.7-3.1,5.6-5.6c0.5-1.2,0.7-2.5,0.7-3.8c0-3.1-1.5-4.4-2.8-5c-0.2-0.1-0.5-0.2-0.7-0.2c1.3-0.7,2.3-1.4,2.8-1.8  c1.8,1.1,2.8,2.5,3.2,6.6c0.6,5-2.1,8.9-3.3,9.9c0,0,0,0-0.1,0c0,0,0,0-0.1,0.1c0,0,0,0,0,0c0,0-2.5,2.8-4.8,3.7l-8.4,3.5L48.1,72.5  c-1.1,0.5-2.4,0.4-3.5-0.1L7,53.2C7,53.2,7,53.2,7,53.2z M88.1,58.3c1.4,0.6,2.1,1.9,2.1,3.9c0,4.9-3.7,6.3-3.9,6.4L47.8,84.5  c-0.2,0.1-0.5,0.1-0.7,0.2c3.2-5.4,1.4-9.1,0.2-10.8c0.4-0.1,0.9-0.2,1.3-0.4l28.1-11.7l8.4-3.5C86,57.9,87.1,57.9,88.1,58.3z   M17.2,65.6c1.4-1.7,1.1-4,0.7-5.5l26.1,13.3c0.5,0.3,1.1,0.4,1.7,0.5c0.7,0.6,4.1,4.3,0,10.7c-0.1,0-0.2-0.1-0.3-0.1l-31.9-15  C14.8,68.4,16.8,66.5,17.2,65.6z M89.2,71.8c-0.3,0.2-0.7,0.4-1.1,0.6L47.6,90.1c-0.8,0.3-1.7,0.3-2.5-0.1L6.8,70.5  c-0.1-0.1-0.1-0.2-0.1-0.2c0-0.1,0-0.2,0.2-0.2l7.8-3.2c-0.7,0.7-1.7,1.6-2.5,2.3c-0.2,0.1-0.2,0.3-0.2,0.5c0,0.2,0.2,0.4,0.3,0.5  L45,85.6c1,0.4,2.2,0.5,3.2,0.1l38.4-15.9c0,0,4.7-1.7,4.7-7.5c0-3.1-1.5-4.4-2.8-5c-0.4-0.2-0.7-0.3-1.1-0.3  c1.1-0.9,2.1-1.8,2.6-2.3c2.2,1,3.4,3.3,3.8,7.2C94.2,66.8,90.7,70.7,89.2,71.8z"></path></g><g id="SvgjsG1268" featureKey="nameFeature-0" transform="matrix(1.5752992630004883,0,0,1.5752992630004883,118.17265716261397,4.978577962815834)" fill="#111111"><path d="M11.72 18.76 c1.9467 0 3.6801 0.45328 5.2 1.36 s2.7133 2.22 3.58 3.94 s1.3 3.7 1.3 5.94 c0 0.21332 -0.01332 0.56 -0.04 1.04 l-14.92 0 c0.05332 1.6533 0.48664 2.94 1.3 3.86 s2.06 1.38 3.74 1.38 c1.04 0 1.9933 -0.26 2.86 -0.78 s1.42 -1.1533 1.66 -1.9 l5 0 c-1.4667 4.64 -4.6932 6.96 -9.68 6.96 c-1.8933 -0.02668 -3.6466 -0.44 -5.26 -1.24 s-2.9 -2.0467 -3.86 -3.74 s-1.44 -3.66 -1.44 -5.9 c0 -2.1067 0.48668 -4.0268 1.46 -5.76 s2.2666 -3.0266 3.88 -3.88 s3.3533 -1.28 5.22 -1.28 z M16.08 27.439999999999998 c-0.26668 -1.5467 -0.76 -2.6667 -1.48 -3.36 s-1.7467 -1.04 -3.08 -1.04 c-1.3867 0 -2.48 0.39332 -3.28 1.18 s-1.2667 1.86 -1.4 3.22 l9.24 0 z M37.96 11.440000000000001 c4.0532 0 7.24 1.2533 9.56 3.76 s3.48 5.96 3.48 10.36 c0 4.56 -1.1667 8.1068 -3.5 10.64 s-5.46 3.8 -9.38 3.8 l-12.4 0 l0 -28.56 l12.24 0 z M37.56 34.72 c2.2667 0 4.0268 -0.74668 5.28 -2.24 s1.88 -3.6133 1.88 -6.36 c0 -3.1467 -0.67332 -5.5 -2.02 -7.06 s-3.42 -2.34 -6.22 -2.34 l-4.48 0 l0 18 l5.56 0 z M76.52000000000001 11.440000000000001 l0 5.28 l-8.56 0 l0 23.28 l-6.28 0 l0 -23.28 l-8.56 0 l0 -5.28 l23.4 0 z M86.08000000000001 11.440000000000001 l0 23.28 l13.92 0 l0 5.28 l-20.2 0 l0 -28.56 l6.28 0 z M118.92 11.440000000000001 c2.4 0 4.3936 0.74 5.98 2.22 s2.38 3.3667 2.38 5.66 c0 3.5733 -1.5067 5.96 -4.52 7.16 l0 0.08 c1.0133 0.29332 1.8066 0.78 2.38 1.46 s1.0066 1.4733 1.3 2.38 s0.48 2.36 0.56 4.36 c0.10668 2.6133 0.48 4.36 1.12 5.24 l-6.28 0 c-0.34668 -0.88 -0.61336 -2.5333 -0.80004 -4.96 c-0.21332 -2.56 -0.68 -4.2332 -1.4 -5.02 s-1.8933 -1.18 -3.52 -1.18 l-6.32 0 l0 11.16 l-6.28 0 l0 -28.56 l15.4 0 z M116.72 24.36 c1.3333 0 2.38 -0.3 3.14 -0.9 s1.14 -1.66 1.14 -3.18 c0 -1.44 -0.37332 -2.46 -1.12 -3.06 s-1.8134 -0.9 -3.2 -0.9 l-6.88 0 l0 8.04 l6.92 0 z"></path></g>
			</g>
		</svg>
	